<svg width="983" height="320" viewBox="0 0 983 320" fill="none" xmlns="http://www.w3.org/2000/svg">
<path d="M369.016 111.416C381.475 111.416 392.824 114.445 403.064 120.504C413.304 126.563 421.453 134.712 427.512 144.952C433.571 155.107 436.6 166.371 436.6 178.744C436.6 188.045 434.851 196.792 431.352 204.984C427.853 213.176 422.989 220.387 416.76 226.616C410.616 232.76 403.448 237.581 395.256 241.08C387.149 244.579 378.403 246.328 369.016 246.328C362.275 246.328 356.216 244.877 350.84 241.976C345.464 239.075 340.771 235.405 336.76 230.968V243H298.36V51H336.76V126.776C340.771 122.253 345.464 118.584 350.84 115.768C356.216 112.867 362.275 111.416 369.016 111.416ZM368.504 209.208C373.795 209.208 378.616 207.843 382.968 205.112C387.32 202.381 390.776 198.712 393.336 194.104C395.896 189.496 397.176 184.376 397.176 178.744C397.176 173.197 395.896 168.12 393.336 163.512C390.776 158.904 387.32 155.235 382.968 152.504C378.616 149.688 373.795 148.28 368.504 148.28C363.299 148.28 358.52 149.688 354.168 152.504C349.901 155.235 346.488 158.904 343.928 163.512C341.368 168.12 340.088 173.197 340.088 178.744C340.088 184.376 341.368 189.496 343.928 194.104C346.488 198.712 349.901 202.381 354.168 205.112C358.52 207.843 363.299 209.208 368.504 209.208ZM549.014 115H587.414V243H548.886L547.094 231.48C543.937 235.917 539.926 239.501 535.062 242.232C530.283 244.963 524.694 246.328 518.294 246.328C508.737 246.328 499.777 244.536 491.414 240.952C483.137 237.368 475.841 232.419 469.526 226.104C463.211 219.704 458.262 212.365 454.678 204.088C451.179 195.725 449.43 186.765 449.43 177.208C449.43 168.077 451.094 159.544 454.422 151.608C457.75 143.672 462.401 136.717 468.374 130.744C474.433 124.685 481.387 119.949 489.238 116.536C497.174 113.123 505.665 111.416 514.71 111.416C522.049 111.416 528.705 112.952 534.678 116.024C540.737 119.011 546.113 122.765 550.806 127.288L549.014 115ZM517.27 209.464C522.561 209.464 527.382 208.099 531.734 205.368C536.086 202.637 539.542 198.968 542.102 194.36C544.662 189.752 545.942 184.632 545.942 179C545.942 173.368 544.662 168.248 542.102 163.64C539.542 159.032 536.086 155.363 531.734 152.632C527.382 149.901 522.561 148.536 517.27 148.536C511.979 148.536 507.158 149.901 502.806 152.632C498.539 155.363 495.126 159.032 492.566 163.64C490.091 168.248 488.854 173.368 488.854 179C488.854 184.632 490.134 189.752 492.694 194.36C495.254 198.968 498.667 202.637 502.934 205.368C507.286 208.099 512.065 209.464 517.27 209.464ZM702.002 115H740.402V244.28C740.402 254.008 738.439 262.712 734.514 270.392C730.674 278.157 725.383 284.771 718.642 290.232C711.901 295.693 704.135 299.832 695.346 302.648C686.642 305.549 677.426 307 667.698 307C658.653 307 649.991 305.251 641.714 301.752C633.437 298.339 626.055 293.56 619.57 287.416C613.085 281.272 607.965 274.147 604.21 266.04L639.282 250.168C641.074 254.008 643.421 257.251 646.322 259.896C649.223 262.627 652.509 264.717 656.178 266.168C659.847 267.619 663.687 268.344 667.698 268.344C672.135 268.344 676.402 267.875 680.498 266.936C684.594 265.997 688.263 264.547 691.506 262.584C694.749 260.621 697.309 258.104 699.186 255.032C701.063 252.045 702.002 248.461 702.002 244.28V231.736C698.162 236.088 693.597 239.629 688.306 242.36C683.101 245.005 677.085 246.328 670.258 246.328C660.957 246.328 652.253 244.579 644.146 241.08C636.039 237.581 628.871 232.76 622.642 226.616C616.498 220.387 611.677 213.219 608.178 205.112C604.679 197.005 602.93 188.301 602.93 179C602.93 169.699 604.679 160.995 608.178 152.888C611.677 144.781 616.498 137.656 622.642 131.512C628.871 125.283 636.039 120.419 644.146 116.92C652.253 113.421 660.957 111.672 670.258 111.672C677.085 111.672 683.101 113.037 688.306 115.768C693.597 118.413 698.162 121.912 702.002 126.264V115ZM670.77 209.464C676.061 209.464 680.882 208.099 685.234 205.368C689.586 202.637 693.042 198.968 695.602 194.36C698.162 189.752 699.442 184.632 699.442 179C699.442 173.368 698.162 168.248 695.602 163.64C693.042 159.032 689.586 155.363 685.234 152.632C680.882 149.901 676.061 148.536 670.77 148.536C665.565 148.536 660.786 149.901 656.434 152.632C652.167 155.363 648.754 159.032 646.194 163.64C643.634 168.248 642.354 173.368 642.354 179C642.354 184.632 643.634 189.752 646.194 194.36C648.754 198.968 652.167 202.637 656.434 205.368C660.786 208.099 665.565 209.464 670.77 209.464ZM823.68 246.328C811.904 246.328 801.152 243.299 791.424 237.24C781.781 231.181 774.059 223.032 768.256 212.792C762.539 202.552 759.68 191.245 759.68 178.872C759.68 169.571 761.344 160.867 764.672 152.76C768 144.568 772.565 137.4 778.368 131.256C784.256 125.027 791.083 120.163 798.848 116.664C806.613 113.165 814.891 111.416 823.68 111.416C833.92 111.416 843.264 113.677 851.712 118.2C860.245 122.637 867.413 128.696 873.216 136.376C879.104 143.971 883.285 152.547 885.76 162.104C888.235 171.661 888.491 181.517 886.528 191.672H801.152C802.347 194.659 803.925 197.389 805.888 199.864C807.936 202.253 810.411 204.173 813.312 205.624C816.299 207.075 819.755 207.843 823.68 207.928C827.435 208.013 830.891 207.203 834.048 205.496C837.291 203.789 840.107 201.485 842.496 198.584L881.664 207.672C876.459 219.021 868.693 228.323 858.368 235.576C848.043 242.744 836.48 246.328 823.68 246.328ZM799.744 163.512H847.744C846.549 159.843 844.757 156.6 842.368 153.784C839.979 150.968 837.163 148.749 833.92 147.128C830.763 145.507 827.349 144.696 823.68 144.696C820.096 144.696 816.683 145.507 813.44 147.128C810.283 148.749 807.509 150.968 805.12 153.784C802.816 156.6 801.024 159.843 799.744 163.512ZM904.11 243V51H942.51V243H904.11Z" fill="black"/>
<g filter="url(#filter0_d_8_80)">
<path d="M124 35C192.483 35 248 90.7405 248 159.5C248 228.259 192.483 284 124 284C55.5167 284 0 228.259 0 159.5C0 90.7405 55.5167 35 124 35ZM123.5 118C100.58 118 82 136.58 82 159.5C82 182.42 100.58 201 123.5 201C146.42 201 165 182.42 165 159.5C165 136.58 146.42 118 123.5 118Z" fill="black"/>
</g>
<defs>
<filter id="filter0_d_8_80" x="0" y="35" width="270" height="271" filterUnits="userSpaceOnUse" color-interpolation-filters="sRGB">
<feFlood flood-opacity="0" result="BackgroundImageFix"/>
<feColorMatrix in="SourceAlpha" type="matrix" values="0 0 0 0 0 0 0 0 0 0 0 0 0 0 0 0 0 0 127 0" result="hardAlpha"/>
<feOffset dx="20" dy="20"/>
<feGaussianBlur stdDeviation="1"/>
<feComposite in2="hardAlpha" operator="out"/>
<feColorMatrix type="matrix" values="0 0 0 0 0 0 0 0 0 0 0 0 0 0 0 0 0 0 0.25 0"/>
<feBlend mode="darken" in2="BackgroundImageFix" result="effect1_dropShadow_8_80"/>
<feBlend mode="normal" in="SourceGraphic" in2="effect1_dropShadow_8_80" result="shape"/>
</filter>
</defs>
</svg>
