<svg width="989" height="320" viewBox="0 0 989 320" fill="none" xmlns="http://www.w3.org/2000/svg">
<path d="M375.016 111.416C387.475 111.416 398.824 114.445 409.064 120.504C419.304 126.563 427.453 134.712 433.512 144.952C439.571 155.107 442.6 166.371 442.6 178.744C442.6 188.045 440.851 196.792 437.352 204.984C433.853 213.176 428.989 220.387 422.76 226.616C416.616 232.76 409.448 237.581 401.256 241.08C393.149 244.579 384.403 246.328 375.016 246.328C368.275 246.328 362.216 244.877 356.84 241.976C351.464 239.075 346.771 235.405 342.76 230.968V243H304.36V51H342.76V126.776C346.771 122.253 351.464 118.584 356.84 115.768C362.216 112.867 368.275 111.416 375.016 111.416ZM374.504 209.208C379.795 209.208 384.616 207.843 388.968 205.112C393.32 202.381 396.776 198.712 399.336 194.104C401.896 189.496 403.176 184.376 403.176 178.744C403.176 173.197 401.896 168.12 399.336 163.512C396.776 158.904 393.32 155.235 388.968 152.504C384.616 149.688 379.795 148.28 374.504 148.28C369.299 148.28 364.52 149.688 360.168 152.504C355.901 155.235 352.488 158.904 349.928 163.512C347.368 168.12 346.088 173.197 346.088 178.744C346.088 184.376 347.368 189.496 349.928 194.104C352.488 198.712 355.901 202.381 360.168 205.112C364.52 207.843 369.299 209.208 374.504 209.208ZM555.014 115H593.414V243H554.886L553.094 231.48C549.937 235.917 545.926 239.501 541.062 242.232C536.283 244.963 530.694 246.328 524.294 246.328C514.737 246.328 505.777 244.536 497.414 240.952C489.137 237.368 481.841 232.419 475.526 226.104C469.211 219.704 464.262 212.365 460.678 204.088C457.179 195.725 455.43 186.765 455.43 177.208C455.43 168.077 457.094 159.544 460.422 151.608C463.75 143.672 468.401 136.717 474.374 130.744C480.433 124.685 487.387 119.949 495.238 116.536C503.174 113.123 511.665 111.416 520.71 111.416C528.049 111.416 534.705 112.952 540.678 116.024C546.737 119.011 552.113 122.765 556.806 127.288L555.014 115ZM523.27 209.464C528.561 209.464 533.382 208.099 537.734 205.368C542.086 202.637 545.542 198.968 548.102 194.36C550.662 189.752 551.942 184.632 551.942 179C551.942 173.368 550.662 168.248 548.102 163.64C545.542 159.032 542.086 155.363 537.734 152.632C533.382 149.901 528.561 148.536 523.27 148.536C517.979 148.536 513.158 149.901 508.806 152.632C504.539 155.363 501.126 159.032 498.566 163.64C496.091 168.248 494.854 173.368 494.854 179C494.854 184.632 496.134 189.752 498.694 194.36C501.254 198.968 504.667 202.637 508.934 205.368C513.286 208.099 518.065 209.464 523.27 209.464ZM708.002 115H746.402V244.28C746.402 254.008 744.439 262.712 740.514 270.392C736.674 278.157 731.383 284.771 724.642 290.232C717.901 295.693 710.135 299.832 701.346 302.648C692.642 305.549 683.426 307 673.698 307C664.653 307 655.991 305.251 647.714 301.752C639.437 298.339 632.055 293.56 625.57 287.416C619.085 281.272 613.965 274.147 610.21 266.04L645.282 250.168C647.074 254.008 649.421 257.251 652.322 259.896C655.223 262.627 658.509 264.717 662.178 266.168C665.847 267.619 669.687 268.344 673.698 268.344C678.135 268.344 682.402 267.875 686.498 266.936C690.594 265.997 694.263 264.547 697.506 262.584C700.749 260.621 703.309 258.104 705.186 255.032C707.063 252.045 708.002 248.461 708.002 244.28V231.736C704.162 236.088 699.597 239.629 694.306 242.36C689.101 245.005 683.085 246.328 676.258 246.328C666.957 246.328 658.253 244.579 650.146 241.08C642.039 237.581 634.871 232.76 628.642 226.616C622.498 220.387 617.677 213.219 614.178 205.112C610.679 197.005 608.93 188.301 608.93 179C608.93 169.699 610.679 160.995 614.178 152.888C617.677 144.781 622.498 137.656 628.642 131.512C634.871 125.283 642.039 120.419 650.146 116.92C658.253 113.421 666.957 111.672 676.258 111.672C683.085 111.672 689.101 113.037 694.306 115.768C699.597 118.413 704.162 121.912 708.002 126.264V115ZM676.77 209.464C682.061 209.464 686.882 208.099 691.234 205.368C695.586 202.637 699.042 198.968 701.602 194.36C704.162 189.752 705.442 184.632 705.442 179C705.442 173.368 704.162 168.248 701.602 163.64C699.042 159.032 695.586 155.363 691.234 152.632C686.882 149.901 682.061 148.536 676.77 148.536C671.565 148.536 666.786 149.901 662.434 152.632C658.167 155.363 654.754 159.032 652.194 163.64C649.634 168.248 648.354 173.368 648.354 179C648.354 184.632 649.634 189.752 652.194 194.36C654.754 198.968 658.167 202.637 662.434 205.368C666.786 208.099 671.565 209.464 676.77 209.464ZM829.68 246.328C817.904 246.328 807.152 243.299 797.424 237.24C787.781 231.181 780.059 223.032 774.256 212.792C768.539 202.552 765.68 191.245 765.68 178.872C765.68 169.571 767.344 160.867 770.672 152.76C774 144.568 778.565 137.4 784.368 131.256C790.256 125.027 797.083 120.163 804.848 116.664C812.613 113.165 820.891 111.416 829.68 111.416C839.92 111.416 849.264 113.677 857.712 118.2C866.245 122.637 873.413 128.696 879.216 136.376C885.104 143.971 889.285 152.547 891.76 162.104C894.235 171.661 894.491 181.517 892.528 191.672H807.152C808.347 194.659 809.925 197.389 811.888 199.864C813.936 202.253 816.411 204.173 819.312 205.624C822.299 207.075 825.755 207.843 829.68 207.928C833.435 208.013 836.891 207.203 840.048 205.496C843.291 203.789 846.107 201.485 848.496 198.584L887.664 207.672C882.459 219.021 874.693 228.323 864.368 235.576C854.043 242.744 842.48 246.328 829.68 246.328ZM805.744 163.512H853.744C852.549 159.843 850.757 156.6 848.368 153.784C845.979 150.968 843.163 148.749 839.92 147.128C836.763 145.507 833.349 144.696 829.68 144.696C826.096 144.696 822.683 145.507 819.44 147.128C816.283 148.749 813.509 150.968 811.12 153.784C808.816 156.6 807.024 159.843 805.744 163.512ZM910.11 243V51H948.51V243H910.11Z" fill="black"/>
<path d="M145 60C213.483 60 269 115.517 269 184C269 252.483 213.483 308 145 308C76.5167 308 21 252.483 21 184C21 115.517 76.5167 60 145 60Z" fill="#D5D5D5"/>
<path d="M124 35C192.483 35 248 90.7405 248 159.5C248 228.259 192.483 284 124 284C55.5167 284 0 228.259 0 159.5C0 90.7405 55.5167 35 124 35ZM123.5 118C100.58 118 82 136.58 82 159.5C82 182.42 100.58 201 123.5 201C146.42 201 165 182.42 165 159.5C165 136.58 146.42 118 123.5 118Z" fill="black"/>
<path d="M375.016 111.416C387.475 111.416 398.824 114.445 409.064 120.504C419.304 126.563 427.453 134.712 433.512 144.952C439.571 155.107 442.6 166.371 442.6 178.744C442.6 188.045 440.851 196.792 437.352 204.984C433.853 213.176 428.989 220.387 422.76 226.616C416.616 232.76 409.448 237.581 401.256 241.08C393.149 244.579 384.403 246.328 375.016 246.328C368.275 246.328 362.216 244.877 356.84 241.976C351.464 239.075 346.771 235.405 342.76 230.968V243H304.36V51H342.76V126.776C346.771 122.253 351.464 118.584 356.84 115.768C362.216 112.867 368.275 111.416 375.016 111.416ZM374.504 209.208C379.795 209.208 384.616 207.843 388.968 205.112C393.32 202.381 396.776 198.712 399.336 194.104C401.896 189.496 403.176 184.376 403.176 178.744C403.176 173.197 401.896 168.12 399.336 163.512C396.776 158.904 393.32 155.235 388.968 152.504C384.616 149.688 379.795 148.28 374.504 148.28C369.299 148.28 364.52 149.688 360.168 152.504C355.901 155.235 352.488 158.904 349.928 163.512C347.368 168.12 346.088 173.197 346.088 178.744C346.088 184.376 347.368 189.496 349.928 194.104C352.488 198.712 355.901 202.381 360.168 205.112C364.52 207.843 369.299 209.208 374.504 209.208ZM555.014 115H593.414V243H554.886L553.094 231.48C549.937 235.917 545.926 239.501 541.062 242.232C536.283 244.963 530.694 246.328 524.294 246.328C514.737 246.328 505.777 244.536 497.414 240.952C489.137 237.368 481.841 232.419 475.526 226.104C469.211 219.704 464.262 212.365 460.678 204.088C457.179 195.725 455.43 186.765 455.43 177.208C455.43 168.077 457.094 159.544 460.422 151.608C463.75 143.672 468.401 136.717 474.374 130.744C480.433 124.685 487.387 119.949 495.238 116.536C503.174 113.123 511.665 111.416 520.71 111.416C528.049 111.416 534.705 112.952 540.678 116.024C546.737 119.011 552.113 122.765 556.806 127.288L555.014 115ZM523.27 209.464C528.561 209.464 533.382 208.099 537.734 205.368C542.086 202.637 545.542 198.968 548.102 194.36C550.662 189.752 551.942 184.632 551.942 179C551.942 173.368 550.662 168.248 548.102 163.64C545.542 159.032 542.086 155.363 537.734 152.632C533.382 149.901 528.561 148.536 523.27 148.536C517.979 148.536 513.158 149.901 508.806 152.632C504.539 155.363 501.126 159.032 498.566 163.64C496.091 168.248 494.854 173.368 494.854 179C494.854 184.632 496.134 189.752 498.694 194.36C501.254 198.968 504.667 202.637 508.934 205.368C513.286 208.099 518.065 209.464 523.27 209.464ZM708.002 115H746.402V244.28C746.402 254.008 744.439 262.712 740.514 270.392C736.674 278.157 731.383 284.771 724.642 290.232C717.901 295.693 710.135 299.832 701.346 302.648C692.642 305.549 683.426 307 673.698 307C664.653 307 655.991 305.251 647.714 301.752C639.437 298.339 632.055 293.56 625.57 287.416C619.085 281.272 613.965 274.147 610.21 266.04L645.282 250.168C647.074 254.008 649.421 257.251 652.322 259.896C655.223 262.627 658.509 264.717 662.178 266.168C665.847 267.619 669.687 268.344 673.698 268.344C678.135 268.344 682.402 267.875 686.498 266.936C690.594 265.997 694.263 264.547 697.506 262.584C700.749 260.621 703.309 258.104 705.186 255.032C707.063 252.045 708.002 248.461 708.002 244.28V231.736C704.162 236.088 699.597 239.629 694.306 242.36C689.101 245.005 683.085 246.328 676.258 246.328C666.957 246.328 658.253 244.579 650.146 241.08C642.039 237.581 634.871 232.76 628.642 226.616C622.498 220.387 617.677 213.219 614.178 205.112C610.679 197.005 608.93 188.301 608.93 179C608.93 169.699 610.679 160.995 614.178 152.888C617.677 144.781 622.498 137.656 628.642 131.512C634.871 125.283 642.039 120.419 650.146 116.92C658.253 113.421 666.957 111.672 676.258 111.672C683.085 111.672 689.101 113.037 694.306 115.768C699.597 118.413 704.162 121.912 708.002 126.264V115ZM676.77 209.464C682.061 209.464 686.882 208.099 691.234 205.368C695.586 202.637 699.042 198.968 701.602 194.36C704.162 189.752 705.442 184.632 705.442 179C705.442 173.368 704.162 168.248 701.602 163.64C699.042 159.032 695.586 155.363 691.234 152.632C686.882 149.901 682.061 148.536 676.77 148.536C671.565 148.536 666.786 149.901 662.434 152.632C658.167 155.363 654.754 159.032 652.194 163.64C649.634 168.248 648.354 173.368 648.354 179C648.354 184.632 649.634 189.752 652.194 194.36C654.754 198.968 658.167 202.637 662.434 205.368C666.786 208.099 671.565 209.464 676.77 209.464ZM829.68 246.328C817.904 246.328 807.152 243.299 797.424 237.24C787.781 231.181 780.059 223.032 774.256 212.792C768.539 202.552 765.68 191.245 765.68 178.872C765.68 169.571 767.344 160.867 770.672 152.76C774 144.568 778.565 137.4 784.368 131.256C790.256 125.027 797.083 120.163 804.848 116.664C812.613 113.165 820.891 111.416 829.68 111.416C839.92 111.416 849.264 113.677 857.712 118.2C866.245 122.637 873.413 128.696 879.216 136.376C885.104 143.971 889.285 152.547 891.76 162.104C894.235 171.661 894.491 181.517 892.528 191.672H807.152C808.347 194.659 809.925 197.389 811.888 199.864C813.936 202.253 816.411 204.173 819.312 205.624C822.299 207.075 825.755 207.843 829.68 207.928C833.435 208.013 836.891 207.203 840.048 205.496C843.291 203.789 846.107 201.485 848.496 198.584L887.664 207.672C882.459 219.021 874.693 228.323 864.368 235.576C854.043 242.744 842.48 246.328 829.68 246.328ZM805.744 163.512H853.744C852.549 159.843 850.757 156.6 848.368 153.784C845.979 150.968 843.163 148.749 839.92 147.128C836.763 145.507 833.349 144.696 829.68 144.696C826.096 144.696 822.683 145.507 819.44 147.128C816.283 148.749 813.509 150.968 811.12 153.784C808.816 156.6 807.024 159.843 805.744 163.512ZM910.11 243V51H948.51V243H910.11Z" fill="white"/>
<path d="M145 60C213.483 60 269 115.517 269 184C269 252.483 213.483 308 145 308C76.5167 308 21 252.483 21 184C21 115.517 76.5167 60 145 60Z" fill="#D5D5D5"/>
<path d="M124 35C192.483 35 248 90.7405 248 159.5C248 228.259 192.483 284 124 284C55.5167 284 0 228.259 0 159.5C0 90.7405 55.5167 35 124 35ZM123.5 118C100.58 118 82 136.58 82 159.5C82 182.42 100.58 201 123.5 201C146.42 201 165 182.42 165 159.5C165 136.58 146.42 118 123.5 118Z" fill="white"/>
</svg>
