<svg width="175" height="48" viewBox="0 0 175 48" fill="none" xmlns="http://www.w3.org/2000/svg">
<circle cx="27" cy="18" r="18" fill="#D5D5D5"/>
<circle cx="18" cy="18" r="18" fill="black"/>
<circle cx="18" cy="18" r="6" fill="white"/>
<path d="M67.128 11.328C69.464 11.328 71.592 11.896 73.512 13.032C75.432 14.168 76.96 15.696 78.096 17.616C79.232 19.52 79.8 21.632 79.8 23.952C79.8 25.696 79.472 27.336 78.816 28.872C78.16 30.408 77.248 31.76 76.08 32.928C74.928 34.08 73.584 34.984 72.048 35.64C70.528 36.296 68.888 36.624 67.128 36.624C65.864 36.624 64.728 36.352 63.72 35.808C62.712 35.264 61.832 34.576 61.08 33.744V36H53.88V-2.86102e-06H61.08V14.208C61.832 13.36 62.712 12.672 63.72 12.144C64.728 11.6 65.864 11.328 67.128 11.328ZM67.032 29.664C68.024 29.664 68.928 29.408 69.744 28.896C70.56 28.384 71.208 27.696 71.688 26.832C72.168 25.968 72.408 25.008 72.408 23.952C72.408 22.912 72.168 21.96 71.688 21.096C71.208 20.232 70.56 19.544 69.744 19.032C68.928 18.504 68.024 18.24 67.032 18.24C66.056 18.24 65.16 18.504 64.344 19.032C63.544 19.544 62.904 20.232 62.424 21.096C61.944 21.96 61.704 22.912 61.704 23.952C61.704 25.008 61.944 25.968 62.424 26.832C62.904 27.696 63.544 28.384 64.344 28.896C65.16 29.408 66.056 29.664 67.032 29.664ZM100.878 12H108.078V36H100.854L100.518 33.84C99.9256 34.672 99.1736 35.344 98.2616 35.856C97.3656 36.368 96.3176 36.624 95.1176 36.624C93.3256 36.624 91.6456 36.288 90.0776 35.616C88.5256 34.944 87.1576 34.016 85.9736 32.832C84.7896 31.632 83.8616 30.256 83.1896 28.704C82.5336 27.136 82.2056 25.456 82.2056 23.664C82.2056 21.952 82.5176 20.352 83.1416 18.864C83.7656 17.376 84.6376 16.072 85.7576 14.952C86.8936 13.816 88.1976 12.928 89.6696 12.288C91.1576 11.648 92.7496 11.328 94.4456 11.328C95.8216 11.328 97.0696 11.616 98.1896 12.192C99.3256 12.752 100.334 13.456 101.214 14.304L100.878 12ZM94.9256 29.712C95.9176 29.712 96.8216 29.456 97.6376 28.944C98.4536 28.432 99.1016 27.744 99.5816 26.88C100.062 26.016 100.302 25.056 100.302 24C100.302 22.944 100.062 21.984 99.5816 21.12C99.1016 20.256 98.4536 19.568 97.6376 19.056C96.8216 18.544 95.9176 18.288 94.9256 18.288C93.9336 18.288 93.0296 18.544 92.2136 19.056C91.4136 19.568 90.7736 20.256 90.2936 21.12C89.8296 21.984 89.5976 22.944 89.5976 24C89.5976 25.056 89.8376 26.016 90.3176 26.88C90.7976 27.744 91.4376 28.432 92.2376 28.944C93.0536 29.456 93.9496 29.712 94.9256 29.712ZM129.563 12H136.763V36.24C136.763 38.064 136.395 39.696 135.659 41.136C134.939 42.592 133.947 43.832 132.683 44.856C131.419 45.88 129.963 46.656 128.315 47.184C126.683 47.728 124.955 48 123.131 48C121.435 48 119.811 47.672 118.259 47.016C116.707 46.376 115.323 45.48 114.107 44.328C112.891 43.176 111.931 41.84 111.227 40.32L117.803 37.344C118.139 38.064 118.579 38.672 119.123 39.168C119.667 39.68 120.283 40.072 120.971 40.344C121.659 40.616 122.379 40.752 123.131 40.752C123.963 40.752 124.763 40.664 125.531 40.488C126.299 40.312 126.987 40.04 127.595 39.672C128.203 39.304 128.683 38.832 129.035 38.256C129.387 37.696 129.563 37.024 129.563 36.24V33.888C128.843 34.704 127.987 35.368 126.995 35.88C126.019 36.376 124.891 36.624 123.611 36.624C121.867 36.624 120.235 36.296 118.715 35.64C117.195 34.984 115.851 34.08 114.683 32.928C113.531 31.76 112.627 30.416 111.971 28.896C111.315 27.376 110.987 25.744 110.987 24C110.987 22.256 111.315 20.624 111.971 19.104C112.627 17.584 113.531 16.248 114.683 15.096C115.851 13.928 117.195 13.016 118.715 12.36C120.235 11.704 121.867 11.376 123.611 11.376C124.891 11.376 126.019 11.632 126.995 12.144C127.987 12.64 128.843 13.296 129.563 14.112V12ZM123.707 29.712C124.699 29.712 125.603 29.456 126.419 28.944C127.235 28.432 127.883 27.744 128.363 26.88C128.843 26.016 129.083 25.056 129.083 24C129.083 22.944 128.843 21.984 128.363 21.12C127.883 20.256 127.235 19.568 126.419 19.056C125.603 18.544 124.699 18.288 123.707 18.288C122.731 18.288 121.835 18.544 121.019 19.056C120.219 19.568 119.579 20.256 119.099 21.12C118.619 21.984 118.379 22.944 118.379 24C118.379 25.056 118.619 26.016 119.099 26.88C119.579 27.744 120.219 28.432 121.019 28.944C121.835 29.456 122.731 29.712 123.707 29.712ZM152.378 36.624C150.17 36.624 148.154 36.056 146.33 34.92C144.522 33.784 143.074 32.256 141.986 30.336C140.914 28.416 140.378 26.296 140.378 23.976C140.378 22.232 140.69 20.6 141.314 19.08C141.938 17.544 142.794 16.2 143.882 15.048C144.986 13.88 146.266 12.968 147.722 12.312C149.178 11.656 150.73 11.328 152.378 11.328C154.298 11.328 156.05 11.752 157.634 12.6C159.234 13.432 160.578 14.568 161.666 16.008C162.77 17.432 163.554 19.04 164.018 20.832C164.482 22.624 164.53 24.472 164.161 26.376H148.154C148.378 26.936 148.674 27.448 149.042 27.912C149.426 28.36 149.89 28.72 150.434 28.992C150.994 29.264 151.641 29.408 152.378 29.424C153.082 29.44 153.73 29.288 154.322 28.968C154.93 28.648 155.458 28.216 155.906 27.672L163.25 29.376C162.274 31.504 160.818 33.248 158.882 34.608C156.946 35.952 154.778 36.624 152.378 36.624ZM147.89 21.096H156.89C156.666 20.408 156.33 19.8 155.882 19.272C155.434 18.744 154.906 18.328 154.298 18.024C153.706 17.72 153.066 17.568 152.378 17.568C151.706 17.568 151.066 17.72 150.458 18.024C149.866 18.328 149.346 18.744 148.898 19.272C148.466 19.8 148.13 20.408 147.89 21.096ZM167.458 36V-2.86102e-06H174.658V36H167.458Z" fill="black"/>
</svg>

