<svg width="456" height="129" viewBox="0 0 456 129" fill="none" xmlns="http://www.w3.org/2000/svg">
<circle cx="67.5" cy="62.5" r="50.5" fill="#D5D5D5"/>
<circle cx="50.5" cy="50.5" r="50.5" fill="black"/>
<circle cx="51" cy="51" r="17" fill="white"/>
<path d="M169.008 31.208C175.237 31.208 180.912 32.7227 186.032 35.752C191.152 38.7813 195.227 42.856 198.256 47.976C201.285 53.0533 202.8 58.6853 202.8 64.872C202.8 69.5227 201.925 73.896 200.176 77.992C198.427 82.088 195.995 85.6933 192.88 88.808C189.808 91.88 186.224 94.2907 182.128 96.04C178.075 97.7893 173.701 98.664 169.008 98.664C165.637 98.664 162.608 97.9387 159.92 96.488C157.232 95.0373 154.885 93.2027 152.88 90.984V97H133.68V0.999992H152.88V38.888C154.885 36.6267 157.232 34.792 159.92 33.384C162.608 31.9333 165.637 31.208 169.008 31.208ZM168.752 80.104C171.397 80.104 173.808 79.4213 175.984 78.056C178.16 76.6907 179.888 74.856 181.168 72.552C182.448 70.248 183.088 67.688 183.088 64.872C183.088 62.0987 182.448 59.56 181.168 57.256C179.888 54.952 178.16 53.1173 175.984 51.752C173.808 50.344 171.397 49.64 168.752 49.64C166.149 49.64 163.76 50.344 161.584 51.752C159.451 53.1173 157.744 54.952 156.464 57.256C155.184 59.56 154.544 62.0987 154.544 64.872C154.544 67.688 155.184 70.248 156.464 72.552C157.744 74.856 159.451 76.6907 161.584 78.056C163.76 79.4213 166.149 80.104 168.752 80.104ZM259.007 33H278.207V97H258.943L258.047 91.24C256.468 93.4587 254.463 95.2507 252.031 96.616C249.642 97.9813 246.847 98.664 243.647 98.664C238.868 98.664 234.388 97.768 230.207 95.976C226.068 94.184 222.42 91.7093 219.263 88.552C216.106 85.352 213.631 81.6827 211.839 77.544C210.09 73.3627 209.215 68.8827 209.215 64.104C209.215 59.5387 210.047 55.272 211.711 51.304C213.375 47.336 215.7 43.8587 218.687 40.872C221.716 37.8427 225.194 35.4747 229.119 33.768C233.087 32.0613 237.332 31.208 241.855 31.208C245.524 31.208 248.852 31.976 251.839 33.512C254.868 35.0053 257.556 36.8827 259.903 39.144L259.007 33ZM243.135 80.232C245.78 80.232 248.191 79.5493 250.367 78.184C252.543 76.8187 254.271 74.984 255.551 72.68C256.831 70.376 257.471 67.816 257.471 65C257.471 62.184 256.831 59.624 255.551 57.32C254.271 55.016 252.543 53.1813 250.367 51.816C248.191 50.4507 245.78 49.768 243.135 49.768C240.49 49.768 238.079 50.4507 235.903 51.816C233.77 53.1813 232.063 55.016 230.783 57.32C229.546 59.624 228.927 62.184 228.927 65C228.927 67.816 229.567 70.376 230.847 72.68C232.127 74.984 233.834 76.8187 235.967 78.184C238.143 79.5493 240.532 80.232 243.135 80.232ZM335.501 33H354.701V97.64C354.701 102.504 353.72 106.856 351.757 110.696C349.837 114.579 347.192 117.885 343.821 120.616C340.45 123.347 336.568 125.416 332.173 126.824C327.821 128.275 323.213 129 318.349 129C313.826 129 309.496 128.125 305.357 126.376C301.218 124.669 297.528 122.28 294.285 119.208C291.042 116.136 288.482 112.573 286.605 108.52L304.141 100.584C305.037 102.504 306.21 104.125 307.661 105.448C309.112 106.813 310.754 107.859 312.589 108.584C314.424 109.309 316.344 109.672 318.349 109.672C320.568 109.672 322.701 109.437 324.749 108.968C326.797 108.499 328.632 107.773 330.253 106.792C331.874 105.811 333.154 104.552 334.093 103.016C335.032 101.523 335.501 99.7307 335.501 97.64V91.368C333.581 93.544 331.298 95.3147 328.653 96.68C326.05 98.0027 323.042 98.664 319.629 98.664C314.978 98.664 310.626 97.7893 306.573 96.04C302.52 94.2907 298.936 91.88 295.821 88.808C292.749 85.6933 290.338 82.1093 288.589 78.056C286.84 74.0027 285.965 69.6507 285.965 65C285.965 60.3493 286.84 55.9973 288.589 51.944C290.338 47.8907 292.749 44.328 295.821 41.256C298.936 38.1413 302.52 35.7093 306.573 33.96C310.626 32.2107 314.978 31.336 319.629 31.336C323.042 31.336 326.05 32.0187 328.653 33.384C331.298 34.7067 333.581 36.456 335.501 38.632V33ZM319.885 80.232C322.53 80.232 324.941 79.5493 327.117 78.184C329.293 76.8187 331.021 74.984 332.301 72.68C333.581 70.376 334.221 67.816 334.221 65C334.221 62.184 333.581 59.624 332.301 57.32C331.021 55.016 329.293 53.1813 327.117 51.816C324.941 50.4507 322.53 49.768 319.885 49.768C317.282 49.768 314.893 50.4507 312.717 51.816C310.584 53.1813 308.877 55.016 307.597 57.32C306.317 59.624 305.677 62.184 305.677 65C305.677 67.816 306.317 70.376 307.597 72.68C308.877 74.984 310.584 76.8187 312.717 78.184C314.893 79.5493 317.282 80.232 319.885 80.232ZM396.34 98.664C390.452 98.664 385.076 97.1493 380.212 94.12C375.391 91.0907 371.529 87.016 368.628 81.896C365.769 76.776 364.34 71.1227 364.34 64.936C364.34 60.2853 365.172 55.9333 366.836 51.88C368.5 47.784 370.783 44.2 373.684 41.128C376.628 38.0133 380.041 35.5813 383.924 33.832C387.807 32.0827 391.945 31.208 396.34 31.208C401.46 31.208 406.132 32.3387 410.356 34.6C414.623 36.8187 418.207 39.848 421.108 43.688C424.052 47.4853 426.143 51.7733 427.38 56.552C428.617 61.3307 428.745 66.2587 427.764 71.336H385.076C385.673 72.8293 386.463 74.1947 387.444 75.432C388.468 76.6267 389.705 77.5867 391.156 78.312C392.649 79.0373 394.377 79.4213 396.34 79.464C398.217 79.5067 399.945 79.1013 401.524 78.248C403.145 77.3947 404.553 76.2427 405.748 74.792L425.332 79.336C422.729 85.0107 418.847 89.6613 413.684 93.288C408.521 96.872 402.74 98.664 396.34 98.664ZM384.372 57.256H408.372C407.775 55.4213 406.879 53.8 405.684 52.392C404.489 50.984 403.081 49.8747 401.46 49.064C399.881 48.2533 398.175 47.848 396.34 47.848C394.548 47.848 392.841 48.2533 391.22 49.064C389.641 49.8747 388.255 50.984 387.06 52.392C385.908 53.8 385.012 55.4213 384.372 57.256ZM436.555 97V0.999992H455.755V97H436.555Z" fill="black"/>
</svg>

